PathFileType	4	(X/Y/Z)	C:/Users/opensim2020/Desktop/walking_exp_matlab/subject03_walking06_straight_01.trc	
DataRate	CameraRate	NumFrames	NumMarkers	Units	OrigDataRate	OrigDataStartFrame	OrigNumFrames	
100.00	100.00	4	44	mm	100.00	533	362	
Frame#	Time	LFHD			RFHD			LBHD			RBHD			C7			T10			CLAV			STRN			RBAK			LSHO			LUPA			LELB			LFRM			LWRA			LWRB			LFIN			RSHO			RUPA			RELB			RFRM			RWRA			RWRB			RFIN			LASI			RASI			LPSI			RPSI			LTHI			LKNE			LTIB			LANK			LHEE			LTOE			RTHI			RKNE			RTIB			RANK			RHEE			RTOE			*39			*40			*41			*42			*43			
		X1	Y1	Z1	X2	Y2	Z2	X3	Y3	Z3	X4	Y4	Z4	X5	Y5	Z5	X6	Y6	Z6	X7	Y7	Z7	X8	Y8	Z8	X9	Y9	Z9	X10	Y10	Z10	X11	Y11	Z11	X12	Y12	Z12	X13	Y13	Z13	X14	Y14	Z14	X15	Y15	Z15	X16	Y16	Z16	X17	Y17	Z17	X18	Y18	Z18	X19	Y19	Z19	X20	Y20	Z20	X21	Y21	Z21	X22	Y22	Z22	X23	Y23	Z23	X24	Y24	Z24	X25	Y25	Z25	X26	Y26	Z26	X27	Y27	Z27	X28	Y28	Z28	X29	Y29	Z29	X30	Y30	Z30	X31	Y31	Z31	X32	Y32	Z32	X33	Y33	Z33	X34	Y34	Z34	X35	Y35	Z35	X36	Y36	Z36	X37	Y37	Z37	X38	Y38	Z38	X39	Y39	Z39	X40	Y40	Z40	X41	Y41	Z41	X42	Y42	Z42	X43	Y43	Z43	X44	Y44	Z44	

91	0.900	1384.08081	-860.21478	1621.02051	1515.22473	-878.71112	1615.97168	1367.38440	-992.03680	1592.94482	1497.55554	-1006.16235	1587.42432	1418.66077	-1046.15723	1429.17517	1423.46997	-1098.04163	1117.22742	1418.92554	-929.07684	1345.24292	1414.19470	-893.27753	1178.48511	1513.97900	-1109.36475	1255.18994	1263.86780	-974.08887	1386.17883	1193.71826	-983.29224	1189.55884	1182.21948	-969.80157	1067.03040	1182.89404	-935.02020	941.06348	1213.12964	-908.35236	824.79132	1162.26563	-930.82141	828.56427	1171.69202	-909.02795	747.04022	1577.85974	-976.35498	1371.97644	1654.82007	-973.41296	1151.70813	1668.19177	-954.24225	1040.13049	1670.06726	-933.19208	905.03949	1632.40002	-901.99109	811.40973	1678.64832	-929.30316	804.83917	1666.30847	-904.68396	734.90753	1309.74243	-946.62866	939.76337	1546.22009	-939.88232	946.42102	1360.86951	-1106.00330	969.86896	1509.41821	-1099.22742	986.35754	1258.06519	-970.63397	639.84167	1278.28821	-938.58270	463.15469	1285.35986	-1085.08911	331.48059	1330.06299	-1228.44507	183.04027	1372.18250	-1279.85449	180.15726	1340.69788	-1140.15186	64.07536	1582.93188	-1002.57086	654.66052	1542.93750	-988.70270	474.98325	1543.03491	-1029.84314	289.44464	1489.08862	-1047.07056	74.42316	1437.67334	-1089.32703	41.63841	1471.96545	-903.77942	37.62621															 
92	0.910	1383.92285	-852.49414	1620.96851	1515.26721	-870.70667	1616.23254	1367.58655	-985.20422	1593.27039	1497.79443	-998.11865	1587.74146	1419.37842	-1038.44446	1429.34595	1424.21582	-1090.36536	1117.41394	1419.09961	-921.50702	1345.34619	1414.59290	-885.68231	1178.60901	1514.94177	-1101.43225	1255.56226	1264.12195	-967.12042	1386.33679	1194.32300	-978.59503	1189.55737	1182.77625	-966.50311	1066.91882	1183.20972	-933.07019	940.67621	1213.04163	-907.62561	823.84778	1162.34180	-930.52515	828.24274	1171.24622	-909.41315	746.52380	1578.24683	-968.01141	1372.40161	1655.30920	-962.08783	1152.18689	1668.41907	-942.08282	1041.00879	1670.44373	-919.45776	906.16107	1632.67810	-887.74817	812.71930	1679.29102	-914.30573	806.08752	1667.06042	-888.72485	736.49506	1310.48035	-938.55463	940.60901	1546.86780	-932.32025	946.06708	1361.11755	-1097.97705	970.35938	1509.86816	-1091.45313	986.41644	1259.30750	-956.71423	640.64215	1280.26953	-921.42120	464.96402	1286.53662	-1064.47729	329.50266	1329.92957	-1204.99255	177.91454	1371.40259	-1257.01025	173.23183	1342.33899	-1112.77307	62.85328	1583.12366	-996.31628	654.51288	1543.06409	-984.19977	474.72830	1543.02087	-1027.27502	289.51077	1489.00842	-1046.84985	74.62969	1437.62280	-1089.23889	42.05046	1471.94788	-903.62445	37.55898															 
93	0.920	1383.72632	-844.69019	1620.93542	1515.31165	-862.85352	1616.32422	1367.73633	-977.67426	1593.39587	1498.05298	-990.10297	1588.09802	1420.00977	-1030.60547	1429.39160	1424.93530	-1082.67786	1117.51050	1419.36987	-913.76080	1345.55542	1414.84802	-878.13708	1178.76038	1515.90039	-1093.51392	1255.92004	1264.36096	-959.92090	1386.46606	1194.81592	-973.80750	1189.55322	1183.23242	-963.28510	1066.80518	1183.45313	-930.99731	940.37201	1213.12769	-906.60028	823.22192	1162.54565	-930.13550	827.85992	1170.94678	-909.77502	745.91199	1578.56165	-959.87122	1372.75269	1655.74426	-951.85632	1152.80872	1668.60364	-930.36475	1041.88647	1670.76086	-905.76263	907.33734	1632.85571	-873.61591	813.95020	1679.82983	-899.41443	807.41174	1667.46277	-873.54663	737.97485	1311.29248	-930.55713	941.27271	1547.43445	-924.60962	945.76685	1361.36511	-1090.08960	970.86633	1510.25452	-1083.69470	986.45990	1260.33618	-943.75269	642.17224	1282.44934	-904.64941	467.00574	1287.51892	-1043.91370	327.50137	1329.95959	-1180.63416	171.89519	1370.59619	-1233.43909	165.68245	1344.08826	-1084.56299	60.81225	1583.16443	-990.16559	654.44373	1543.15198	-979.80640	474.48129	1542.90063	-1024.77856	289.62823	1488.85986	-1046.61243	74.95602	1437.53040	-1089.13306	42.52705	1471.95166	-903.45776	37.47132															 
94	0.930	1383.48145	-836.92273	1620.81799	1515.13660	-854.74500	1616.40332	1367.86157	-970.05011	1593.46082	1498.26184	-982.09808	1588.42517	1420.55627	-1023.05957	1429.47852	1425.76404	-1074.94824	1117.59814	1419.60803	-906.11707	1345.58337	1415.13342	-870.52087	1178.77087	1516.92773	-1085.57727	1256.16858	1265.00842	-953.33624	1386.68359	1195.23401	-968.98480	1189.59766	1183.44226	-960.50708	1066.86902	1183.44067	-929.09003	939.99756	1213.03101	-905.42181	822.52924	1162.86450	-929.61615	827.43018	1170.79114	-909.95746	745.29419	1578.90002	-951.57745	1373.04395	1656.07410	-942.28253	1153.41479	1669.07837	-918.46759	1042.74060	1671.09912	-892.18158	908.49835	1633.12793	-859.29297	815.30249	1680.37048	-884.57721	808.73090	1668.17407	-857.78326	739.52393	1312.08960	-922.59436	941.88965	1547.95276	-916.85455	945.43677	1361.47180	-1082.09766	971.08057	1510.56616	-1075.89465	986.51434	1261.21924	-930.79163	643.32593	1284.41394	-888.48688	469.23163	1288.53369	-1023.32086	325.24490	1330.25537	-1155.23401	165.35228	1370.01917	-1208.77759	157.22234	1346.28699	-1055.33313	58.90873	1583.22778	-983.98315	654.19714	1543.30481	-975.39404	474.19995	1542.81116	-1022.24847	289.68463	1488.72388	-1046.31836	75.24501	1437.81140	-1089.79736	44.10848	1471.96667	-903.30408	37.38366															 
